<?xml version="1.0" encoding="UTF-8"?><svg xmlns="http://www.w3.org/2000/svg" xmlns:xlink="http://www.w3.org/1999/xlink" fill-opacity="1" color-rendering="auto" color-interpolation="auto" text-rendering="auto" stroke="black" stroke-linecap="square" width="712" stroke-miterlimit="10" shape-rendering="auto" stroke-opacity="1" fill="black" stroke-dasharray="none" font-weight="normal" stroke-width="1" height="719" font-family="'Dialog'" font-style="normal" stroke-linejoin="miter" font-size="12px" stroke-dashoffset="0" image-rendering="auto">
  <!--Generated by ySVG 2.6-->
  <defs id="genericDefs"/>
  <g>
    <defs id="defs1">
      <clipPath clipPathUnits="userSpaceOnUse" id="clipPath1">
        <path d="M0 0 L712 0 L712 719 L0 719 L0 0 Z"/>
      </clipPath>
      <clipPath clipPathUnits="userSpaceOnUse" id="clipPath2">
        <path d="M429 139 L1141 139 L1141 858 L429 858 L429 139 Z"/>
      </clipPath>
      <clipPath clipPathUnits="userSpaceOnUse" id="clipPath3">
        <path d="M0 0 L0 42 L117 42 L117 0 Z"/>
      </clipPath>
      <clipPath clipPathUnits="userSpaceOnUse" id="clipPath4">
        <path d="M0 0 L0 24 L115 24 L115 0 Z"/>
      </clipPath>
      <clipPath clipPathUnits="userSpaceOnUse" id="clipPath5">
        <path d="M0 0 L0 24 L134 24 L134 0 Z"/>
      </clipPath>
      <clipPath clipPathUnits="userSpaceOnUse" id="clipPath6">
        <path d="M0 0 L0 42 L246 42 L246 0 Z"/>
      </clipPath>
      <clipPath clipPathUnits="userSpaceOnUse" id="clipPath7">
        <path d="M0 0 L0 24 L174 24 L174 0 Z"/>
      </clipPath>
    </defs>
    <g fill="white" text-rendering="geometricPrecision" shape-rendering="geometricPrecision" transform="translate(-429,-139)" stroke="white">
      <rect x="429" width="712" height="719" y="139" clip-path="url(#clipPath2)" stroke="none"/>
    </g>
    <g fill="rgb(67,141,213)" text-rendering="geometricPrecision" shape-rendering="geometricPrecision" transform="matrix(1,0,0,1,-429,-139)" stroke="rgb(67,141,213)">
      <rect x="505" width="180" height="100" y="229.5" clip-path="url(#clipPath2)" stroke="none"/>
    </g>
    <g stroke-linecap="butt" transform="matrix(1,0,0,1,-429,-139)" fill="rgb(60,127,192)" text-rendering="geometricPrecision" shape-rendering="geometricPrecision" stroke="rgb(60,127,192)" stroke-miterlimit="1.45">
      <rect fill="none" x="505" width="180" height="100" y="229.5" clip-path="url(#clipPath2)"/>
    </g>
    <g stroke-linecap="butt" font-size="14px" transform="matrix(1,0,0,1,-429,-139)" fill="white" text-rendering="geometricPrecision" font-family="sans-serif" shape-rendering="geometricPrecision" stroke="white" font-weight="bold" stroke-miterlimit="1.45">
      <text x="576.3379" xml:space="preserve" y="285.4268" clip-path="url(#clipPath2)" stroke="none">CApp</text>
      <text x="550.9668" font-size="12px" y="248.5605" clip-path="url(#clipPath2)" stroke="none" font-weight="normal" xml:space="preserve">&lt;&lt;Mobile App&gt;&gt;</text>
    </g>
    <g fill="rgb(67,141,213)" text-rendering="geometricPrecision" shape-rendering="geometricPrecision" transform="matrix(1,0,0,1,-429,-139)" stroke="rgb(67,141,213)">
      <rect x="505" width="180" height="100" y="452" clip-path="url(#clipPath2)" stroke="none"/>
    </g>
    <g stroke-linecap="butt" transform="matrix(1,0,0,1,-429,-139)" fill="rgb(60,127,192)" text-rendering="geometricPrecision" shape-rendering="geometricPrecision" stroke="rgb(60,127,192)" stroke-miterlimit="1.45">
      <rect fill="none" x="505" width="180" height="100" y="452" clip-path="url(#clipPath2)"/>
    </g>
    <g stroke-linecap="butt" font-size="14px" transform="matrix(1,0,0,1,-429,-139)" fill="white" text-rendering="geometricPrecision" font-family="sans-serif" shape-rendering="geometricPrecision" stroke="white" font-weight="bold" stroke-miterlimit="1.45">
      <text x="552.9966" xml:space="preserve" y="507.9268" clip-path="url(#clipPath2)" stroke="none">Client Wallet</text>
      <text x="554.3066" font-size="12px" y="471.0605" clip-path="url(#clipPath2)" stroke="none" font-weight="normal" xml:space="preserve">&lt;&lt;Java SDK&gt;&gt;</text>
    </g>
    <g fill="rgb(67,141,213)" text-rendering="geometricPrecision" shape-rendering="geometricPrecision" transform="matrix(1,0,0,1,-429,-139)" stroke="rgb(67,141,213)">
      <rect x="889" width="180" height="100" y="452" clip-path="url(#clipPath2)" stroke="none"/>
    </g>
    <g stroke-linecap="butt" transform="matrix(1,0,0,1,-429,-139)" fill="rgb(60,127,192)" text-rendering="geometricPrecision" shape-rendering="geometricPrecision" stroke="rgb(60,127,192)" stroke-miterlimit="1.45">
      <rect fill="none" x="889" width="180" height="100" y="452" clip-path="url(#clipPath2)"/>
    </g>
    <g stroke-linecap="butt" font-size="14px" transform="matrix(1,0,0,1,-429,-139)" fill="white" text-rendering="geometricPrecision" font-family="sans-serif" shape-rendering="geometricPrecision" stroke="white" font-weight="bold" stroke-miterlimit="1.45">
      <text x="928.0415" xml:space="preserve" y="507.9268" clip-path="url(#clipPath2)" stroke="none">Wallet Provider</text>
      <text x="933.6396" font-size="12px" y="471.0605" clip-path="url(#clipPath2)" stroke="none" font-weight="normal" xml:space="preserve">&lt;&lt;API Service&gt;&gt;</text>
    </g>
    <g fill="rgb(67,141,213)" text-rendering="geometricPrecision" shape-rendering="geometricPrecision" transform="matrix(1,0,0,1,-429,-139)" stroke="rgb(67,141,213)">
      <rect x="889" width="180" height="100" y="674.5" clip-path="url(#clipPath2)" stroke="none"/>
    </g>
    <g stroke-linecap="butt" transform="matrix(1,0,0,1,-429,-139)" fill="rgb(60,127,192)" text-rendering="geometricPrecision" shape-rendering="geometricPrecision" stroke="rgb(60,127,192)" stroke-miterlimit="1.45">
      <rect fill="none" x="889" width="180" height="100" y="674.5" clip-path="url(#clipPath2)"/>
    </g>
    <g stroke-linecap="butt" font-size="14px" transform="matrix(1,0,0,1,-429,-139)" fill="white" text-rendering="geometricPrecision" font-family="sans-serif" shape-rendering="geometricPrecision" stroke="white" font-weight="bold" stroke-miterlimit="1.45">
      <text x="922.9932" xml:space="preserve" y="730.4268" clip-path="url(#clipPath2)" stroke="none">Trust Repository</text>
      <text x="935.9688" font-size="12px" y="693.5605" clip-path="url(#clipPath2)" stroke="none" font-weight="normal" xml:space="preserve">&lt;&lt;Blockchain&gt;&gt;</text>
    </g>
    <g fill="rgb(67,141,213)" text-rendering="geometricPrecision" shape-rendering="geometricPrecision" transform="matrix(1,0,0,1,-429,-139)" stroke="rgb(67,141,213)">
      <rect x="505" width="180" height="100" y="674.5" clip-path="url(#clipPath2)" stroke="none"/>
    </g>
    <g stroke-linecap="butt" transform="matrix(1,0,0,1,-429,-139)" fill="rgb(60,127,192)" text-rendering="geometricPrecision" shape-rendering="geometricPrecision" stroke="rgb(60,127,192)" stroke-miterlimit="1.45">
      <rect fill="none" x="505" width="180" height="100" y="674.5" clip-path="url(#clipPath2)"/>
    </g>
    <g stroke-linecap="butt" font-size="14px" transform="matrix(1,0,0,1,-429,-139)" fill="white" text-rendering="geometricPrecision" font-family="sans-serif" shape-rendering="geometricPrecision" stroke="white" font-weight="bold" stroke-miterlimit="1.45">
      <text x="555.7241" xml:space="preserve" y="730.4268" clip-path="url(#clipPath2)" stroke="none">Trust Agent</text>
      <text x="549.6396" font-size="12px" y="693.5605" clip-path="url(#clipPath2)" stroke="none" font-weight="normal" xml:space="preserve">&lt;&lt;API Service&gt;&gt;</text>
    </g>
    <g font-size="26px" stroke-linecap="butt" transform="matrix(1,0,0,1,-429,-139)" text-rendering="geometricPrecision" font-family="sans-serif" shape-rendering="geometricPrecision" stroke-miterlimit="1.45">
      <text x="661.6665" xml:space="preserve" y="188.0068" clip-path="url(#clipPath2)" stroke="none">[P131] Register Wallet</text>
      <path fill="none" d="M595 329.5 L595 444" clip-path="url(#clipPath2)"/>
      <path d="M595 452 L600 440 L595 443 L590 440 Z" stroke="none" clip-path="url(#clipPath2)"/>
      <text x="599" xml:space="preserve" font-size="12px" y="365.8301" clip-path="url(#clipPath2)" stroke="none">1. Create wallet</text>
      <path fill="none" d="M525 451.9951 L525 441.9976 L524.375 437.6236 L522.5 434.4994 L519.375 432.6248 L515 432 L495 432 L490.625 432.625 L487.5 434.5 L485.625 437.625 L485 442 L485 465 L486.5009 472.5 L488.3771 474.375 L491.0037 475 L497.0073 475" clip-path="url(#clipPath2)"/>
      <path d="M505.0073 475 L493.0073 470 L496.0073 475 L493.0073 480 Z" stroke="none" clip-path="url(#clipPath2)"/>
    </g>
    <g text-rendering="geometricPrecision" stroke-miterlimit="1.45" shape-rendering="geometricPrecision" font-family="sans-serif" transform="matrix(1,0,0,1,-429,-139) translate(446,386)" stroke-linecap="butt">
      <text x="0" xml:space="preserve" y="15" clip-path="url(#clipPath3)" stroke="none">2. Create   - wallet file</text>
      <text x="117" xml:space="preserve" y="15" clip-path="url(#clipPath3)" stroke="none"> </text>
      <text x="0" xml:space="preserve" y="33" clip-path="url(#clipPath3)" stroke="none">  - DidDoc</text>
      <text x="54" xml:space="preserve" font-size="10px" y="39" clip-path="url(#clipPath3)" stroke="none">wallet</text>
    </g>
    <g text-rendering="geometricPrecision" stroke-miterlimit="1.45" shape-rendering="geometricPrecision" transform="matrix(1,0,0,1,-429,-139)" stroke-linecap="butt">
      <path fill="none" d="M684.9531 493 L881.0128 493" clip-path="url(#clipPath2)"/>
      <path d="M889.0128 493 L877.0128 488 L880.0128 493 L877.0128 498 Z" clip-path="url(#clipPath2)" stroke="none"/>
      <text x="728.6289" xml:space="preserve" y="486.0996" clip-path="url(#clipPath2)" font-family="sans-serif" stroke="none">3. Request attestation</text>
      <path fill="none" d="M1043 451.9951 L1043 441.9976 L1043.625 437.6236 L1045.5 434.4994 L1048.625 432.6248 L1053 432 L1079 432 L1083.375 432.625 L1086.5 434.5 L1088.375 437.625 L1089 442 L1089 463 L1087.499 470.5 L1085.6229 472.375 L1082.9963 473 L1076.9927 473" clip-path="url(#clipPath2)"/>
      <path d="M1068.9927 473 L1080.9927 478 L1077.9927 473 L1080.9927 468 Z" clip-path="url(#clipPath2)" stroke="none"/>
    </g>
    <g text-rendering="geometricPrecision" stroke-miterlimit="1.45" shape-rendering="geometricPrecision" font-family="sans-serif" transform="matrix(1,0,0,1,-429,-139) translate(1008,404)" stroke-linecap="butt">
      <text x="0" xml:space="preserve" y="15" clip-path="url(#clipPath4)" stroke="none">4. Attest DidDoc</text>
      <text x="87" xml:space="preserve" font-size="10px" y="21" clip-path="url(#clipPath4)" stroke="none">wallet</text>
    </g>
    <g text-rendering="geometricPrecision" stroke-miterlimit="1.45" stroke-dasharray="6,2" shape-rendering="geometricPrecision" transform="matrix(1,0,0,1,-429,-139)" stroke-linecap="butt">
      <path fill="none" d="M889.0173 513 L693.0043 513" clip-path="url(#clipPath2)"/>
      <path d="M685.0043 513 L697.0043 518 L694.0043 513 L697.0043 508 Z" clip-path="url(#clipPath2)" stroke="none"/>
    </g>
    <g text-rendering="geometricPrecision" stroke-miterlimit="1.45" shape-rendering="geometricPrecision" font-family="sans-serif" transform="matrix(1,0,0,1,-429,-139) translate(720,517)" stroke-linecap="butt">
      <text x="0" xml:space="preserve" y="15" clip-path="url(#clipPath5)" stroke="none">5. {AttestedDidDoc</text>
      <text x="102" xml:space="preserve" font-size="10px" y="21" clip-path="url(#clipPath5)" stroke="none">wallet</text>
      <text x="130" xml:space="preserve" y="15" clip-path="url(#clipPath5)" stroke="none">}</text>
    </g>
    <g text-rendering="geometricPrecision" stroke-miterlimit="1.45" shape-rendering="geometricPrecision" transform="matrix(1,0,0,1,-429,-139)" stroke-linecap="butt">
      <path fill="none" d="M595 552 L595 666.5" clip-path="url(#clipPath2)"/>
      <path d="M595 674.5 L600 662.5 L595 665.5 L590 662.5 Z" clip-path="url(#clipPath2)" stroke="none"/>
      <text x="599" y="618.3301" clip-path="url(#clipPath2)" fill="red" font-family="sans-serif" stroke="none" xml:space="preserve">6. [P131] Register Wallet protocol</text>
      <path fill="none" d="M505.0073 752.5 L495 752.5 L490.625 753.125 L487.5 755 L485.625 758.125 L485 762.5 L485 784.5 L485.625 788.875 L487.5 792 L490.625 793.875 L495 794.5 L520 794.5 L527.5 793.0006 L529.375 791.1263 L530 788.5024 L530 782.5049" clip-path="url(#clipPath2)"/>
      <path d="M530 774.5049 L525 786.5049 L530 783.5049 L535 786.5049 Z" clip-path="url(#clipPath2)" stroke="none"/>
    </g>
    <g text-rendering="geometricPrecision" stroke-miterlimit="1.45" shape-rendering="geometricPrecision" font-family="sans-serif" transform="matrix(1,0,0,1,-429,-139) translate(460,798)" stroke-linecap="butt">
      <text x="0" xml:space="preserve" y="15" clip-path="url(#clipPath6)" stroke="none">7. Verify wallet provider's attestation</text>
      <text x="193" xml:space="preserve" y="15" clip-path="url(#clipPath6)" stroke="none"> </text>
      <text x="0" xml:space="preserve" y="33" clip-path="url(#clipPath6)" stroke="none">8. InvokedDidDoc</text>
      <text x="96" xml:space="preserve" font-size="10px" y="39" clip-path="url(#clipPath6)" stroke="none">wallet</text>
      <text x="124" xml:space="preserve" y="33" clip-path="url(#clipPath6)" stroke="none"> = Sign with invoke key</text>
    </g>
    <g text-rendering="geometricPrecision" stroke-miterlimit="1.45" shape-rendering="geometricPrecision" transform="matrix(1,0,0,1,-429,-139)" stroke-linecap="butt">
      <path fill="none" d="M685 724.5 L881 724.5" clip-path="url(#clipPath2)"/>
      <path d="M889 724.5 L877 719.5 L880 724.5 L877 729.5 Z" clip-path="url(#clipPath2)" stroke="none"/>
    </g>
    <g text-rendering="geometricPrecision" stroke-miterlimit="1.45" shape-rendering="geometricPrecision" font-family="sans-serif" transform="matrix(1,0,0,1,-429,-139) translate(696,696)" stroke-linecap="butt">
      <text x="0" xml:space="preserve" y="15" clip-path="url(#clipPath7)" stroke="none">9. Register InvokedDidDoc</text>
      <text x="146" xml:space="preserve" font-size="10px" y="21" clip-path="url(#clipPath7)" stroke="none">wallet</text>
    </g>
  </g>
</svg>
