<?xml version="1.0" encoding="UTF-8"?><svg xmlns="http://www.w3.org/2000/svg" xmlns:xlink="http://www.w3.org/1999/xlink" fill-opacity="1" color-rendering="auto" color-interpolation="auto" text-rendering="auto" stroke="black" stroke-linecap="square" width="869" stroke-miterlimit="10" shape-rendering="auto" stroke-opacity="1" fill="black" stroke-dasharray="none" font-weight="normal" stroke-width="1" height="698" font-family="'Dialog'" font-style="normal" stroke-linejoin="miter" font-size="12px" stroke-dashoffset="0" image-rendering="auto">
  <!--Generated by ySVG 2.6-->
  <defs id="genericDefs"/>
  <g>
    <defs id="defs1">
      <clipPath clipPathUnits="userSpaceOnUse" id="clipPath1">
        <path d="M0 0 L869 0 L869 698 L0 698 L0 0 Z"/>
      </clipPath>
      <clipPath clipPathUnits="userSpaceOnUse" id="clipPath2">
        <path d="M130 15 L999 15 L999 713 L130 713 L130 15 Z"/>
      </clipPath>
      <clipPath clipPathUnits="userSpaceOnUse" id="clipPath3">
        <path d="M-106.2499 -136.5595 L762.7494 -136.5595 L762.7494 561.4405 L-106.2499 561.4405 L-106.2499 -136.5595 Z"/>
      </clipPath>
      <clipPath clipPathUnits="userSpaceOnUse" id="clipPath4">
        <path d="M-107.2274 -455.2458 L761.8123 -455.2458 L761.8123 223.5042 L-107.2274 223.5042 L-107.2274 -455.2458 Z"/>
      </clipPath>
      <clipPath clipPathUnits="userSpaceOnUse" id="clipPath5">
        <path d="M0 0 L0 48 L138 48 L138 0 Z"/>
      </clipPath>
      <clipPath clipPathUnits="userSpaceOnUse" id="clipPath6">
        <path d="M0 0 L0 24 L115 24 L115 0 Z"/>
      </clipPath>
      <clipPath clipPathUnits="userSpaceOnUse" id="clipPath7">
        <path d="M0 0 L0 24 L134 24 L134 0 Z"/>
      </clipPath>
      <clipPath clipPathUnits="userSpaceOnUse" id="clipPath8">
        <path d="M0 0 L0 24 L122 24 L122 0 Z"/>
      </clipPath>
      <clipPath clipPathUnits="userSpaceOnUse" id="clipPath9">
        <path d="M0 0 L0 42 L104 42 L104 0 Z"/>
      </clipPath>
      <clipPath clipPathUnits="userSpaceOnUse" id="clipPath10">
        <path d="M0 0 L0 24 L157 24 L157 0 Z"/>
      </clipPath>
      <clipPath clipPathUnits="userSpaceOnUse" id="clipPath11">
        <path d="M0 0 L0 24 L164 24 L164 0 Z"/>
      </clipPath>
    </defs>
    <g fill="white" text-rendering="geometricPrecision" shape-rendering="geometricPrecision" transform="translate(-130,-15)" stroke="white">
      <rect x="130" width="869" height="698" y="15" clip-path="url(#clipPath2)" stroke="none"/>
    </g>
    <g fill="rgb(67,141,213)" text-rendering="geometricPrecision" shape-rendering="geometricPrecision" transform="matrix(1,0,0,1,-130,-15)" stroke="rgb(67,141,213)">
      <rect x="804" width="180" height="100" y="442.75" clip-path="url(#clipPath2)" stroke="none"/>
    </g>
    <g stroke-linecap="butt" transform="matrix(1,0,0,1,-130,-15)" fill="rgb(60,127,192)" text-rendering="geometricPrecision" shape-rendering="geometricPrecision" stroke="rgb(60,127,192)" stroke-miterlimit="1.45">
      <rect fill="none" x="804" width="180" height="100" y="442.75" clip-path="url(#clipPath2)"/>
    </g>
    <g stroke-linecap="butt" font-size="14px" transform="matrix(1,0,0,1,-130,-15)" fill="white" text-rendering="geometricPrecision" font-family="sans-serif" shape-rendering="geometricPrecision" stroke="white" font-weight="bold" stroke-miterlimit="1.45">
      <text x="837.9932" xml:space="preserve" y="498.6768" clip-path="url(#clipPath2)" stroke="none">Trust Repository</text>
      <text x="850.9688" font-size="12px" y="461.8105" clip-path="url(#clipPath2)" stroke="none" font-weight="normal" xml:space="preserve">&lt;&lt;Blockchain&gt;&gt;</text>
    </g>
    <g font-size="26px" stroke-linecap="butt" transform="matrix(1,0,0,1,-130,-15)" text-rendering="geometricPrecision" font-family="sans-serif" shape-rendering="geometricPrecision" stroke-miterlimit="1.45">
      <text x="400.2593" xml:space="preserve" y="63.5068" clip-path="url(#clipPath2)" stroke="none">[P110] Enroll Trust Agent</text>
    </g>
    <g text-rendering="geometricPrecision" shape-rendering="geometricPrecision" transform="matrix(1,0,0,1,106.25,136.5595)">
      <g clip-path="url(#clipPath3)">
        <svg xml:space="preserve" opacity="1" writing-mode="lr-tb" stop-color="rgb(0, 0, 0)" shape-rendering="auto" glyph-orientation-horizontal="0deg" color-profile="auto" lighting-color="rgb(255, 255, 255)" color="rgb(0, 0, 0)" font-weight="400" alignment-baseline="auto" font-style="normal" version="1.1" color-interpolation-filters="linearrgb" text-anchor="start" stroke-linecap="butt" color-interpolation="srgb" font-variant="normal" word-spacing="normal" fill-opacity="1" text-rendering="auto" clip-path="none" text-decoration="none" letter-spacing="normal" viewBox="0 0 59 59" glyph-orientation-vertical="auto" display="inline" font-size-adjust="none" overflow="hidden" fill="rgb(0, 0, 0)" font-stretch="normal" stroke-dasharray="none" id="svg1.Ebene_1" stroke-miterlimit="4" stop-opacity="1" color-rendering="auto" font-size="12" pointer-events="visiblepainted" mask="none" direction="ltr" baseline-shift="baseline" enable-background="new 0 0 59 59" fill-rule="nonzero" image-rendering="auto" stroke-dashoffset="0" width="59px" marker-end="none" clip="auto" cursor="auto" stroke="none" filter="none" visibility="visible" kerning="auto" stroke-width="1" font-family="&quot;Arial&quot;,&quot;Helvetica&quot;,sans-serif" flood-opacity="1" clip-rule="nonzero" src="none" height="59px" unicode-bidi="normal" stroke-linejoin="miter" stroke-opacity="1" flood-color="rgb(0, 0, 0)" dominant-baseline="auto" marker-start="none" x="0px" marker-mid="none" y="0px">
<g>
	
		<linearGradient gradientTransform="matrix(1 0 0 -1 0.2002 -1487.2285)" x1="13.6323" x2="14.3617" gradientUnits="userSpaceOnUse" y1="-1502.7422" y2="-1520.2559" id="svg1.neck_x5F_white_1_">
		<stop offset="0.2711" style="stop-color:#FFAB4F"/>
		<stop offset="1" style="stop-color:#FFD28F"/>
	</linearGradient>
	<path fill="url(#svg1.neck_x5F_white_1_)" id="svg1.neck_x5F_white_19_" stroke-width="0.5" d="   M9.639,18.899h9.093v10.115c-0.656,0.186-8.586,0.218-9.093,0.086V18.899z" stroke-miterlimit="10" stroke="#FFAB4F"/>
	
		<linearGradient gradientTransform="matrix(1 0 0 -1 0.2002 -1487.2285)" x1="13.1294" x2="13.75" gradientUnits="userSpaceOnUse" y1="-1499.207" y2="-1514.1072" id="svg1.SVGID_1_">
		<stop offset="0.2711" style="stop-color:#FFAB4F"/>
		<stop offset="1" style="stop-color:#FFD28F"/>
	</linearGradient>
	<path fill="url(#svg1.SVGID_1_)" stroke-width="0.5" d="M24.766,25.612   c-2.199-2.197-5.477-2.941-6.033-3.055v-3.658H9.639c0,0,0.019,3.452,0,3.435c0,0-3.437,0.499-6.154,3.216   c-2.796,2.796-3.235,5.835-3.235,5.835c0,0.971,0.788,1.746,1.762,1.746h24.255c0.974,0,1.761-0.777,1.761-1.746   C28.027,31.384,27.105,27.953,24.766,25.612z" stroke-miterlimit="10" stroke="#ED9135"/>
	
		<radialGradient gradientTransform="matrix(1 0 0 -1 0.2002 -1487.2285)" gradientUnits="userSpaceOnUse" r="11.7123" cx="13.7515" id="svg1.face_x5F_white_1_" cy="-1500.0908" fx="11.4666" fy="-1501.3357">
		<stop offset="0" style="stop-color:#FFD28F"/>
		<stop offset="1" style="stop-color:#FFAB4F"/>
	</radialGradient>
	<path fill="url(#svg1.face_x5F_white_1_)" id="svg1.face_x5F_white_19_" stroke-width="0.5" d="   M21.838,11.679c0.043,5.1-3.369,9.26-7.623,9.293C9.964,21.006,6.483,16.899,6.44,11.8c-0.042-5.1,3.37-9.261,7.622-9.294   C18.314,2.473,21.795,6.579,21.838,11.679z" stroke-miterlimit="10" stroke="#ED9135"/>
	
		<linearGradient gradientTransform="matrix(0.275 0 0 0.2733 -1169.7629 -2324.9595)" x1="4300.0391" x2="4311.8545" gradientUnits="userSpaceOnUse" y1="8522.0703" y2="8568.7988" id="svg1.face_highlight_1_">
		<stop offset="0" style="stop-color:#FFFFFF;stop-opacity:0.24"/>
		<stop offset="1" style="stop-color:#FFFFFF;stop-opacity:0.16"/>
	</linearGradient>
	<path fill="url(#svg1.face_highlight_1_)" id="svg1.face_highlight_19_" d="M13.979,3.166c-3.018,0.023-5.374,2.247-6.394,5.193   c-0.332,0.96-0.147,2.021,0.49,2.814c1.365,1.699,2.865,3.142,4.73,4.044c1.569,0.759,3.767,1.192,5.946,0.624   c1.139-0.297,1.994-1.229,2.188-2.383c0.092-0.548,0.146-1.145,0.143-1.777C21.041,6.977,18.137,3.134,13.979,3.166z"/>
	
		<path stroke-linecap="round" fill="#4B4B4B" stroke-linejoin="round" d="   M14.187,0.25c-5.418,0-10.052,3.624-9.61,12.813c0.282,3.281,2.931,6.021,4.683,6.766C7.795,14.344,9.107,7.317,8.967,7.064   c-0.14-0.252,1.769,3.364,1.769,3.364l1.591-4.155c2.771,2.14,0.197,5.654,0.524,5.528c2.129-0.815,2.67-4.614,2.67-4.614   s1.364,1.829,1.35,2.752c-0.025,1.781,1.098-3.033,1.098-3.033l0.514,1.016c3.363,4.911,1.842,8.104,0.826,11.391   c7.834-0.352,6.146-5.24,4.83-9.203C21.795,3.046,19.604,0.25,14.187,0.25z" id="svg1.Hair_Female_1_Black_9_" stroke="#000000" stroke-width="0.5"/>
	
		<linearGradient gradientTransform="matrix(0.9852 0 0 0.9852 -22.6981 -2330.2188)" x1="53.4854" x2="21.2897" gradientUnits="userSpaceOnUse" y1="2393.7295" y2="2393.7295" id="svg1.body_1_">
		<stop offset="0" style="stop-color:#49AD33"/>
		<stop offset="1" style="stop-color:#C2DA92"/>
	</linearGradient>
	<path fill="url(#svg1.body_1_)" id="svg1.body_63_" d="M0.25,31.384c0,0.97,0.788,1.747,1.762,1.747   h24.255c0.974,0,1.761-0.779,1.761-1.747c0,0-0.922-3.431-3.262-5.771c-2.408-2.406-4.123-2.572-4.123-2.572   c-0.723,3.491-4.277,4.393-6.503,4.393c-2.227,0-5.75-0.994-6.06-4.393c0,0-1.877-0.207-4.594,2.51   C0.689,28.345,0.25,31.384,0.25,31.384z" stroke-width="0.5" stroke="#008D33"/>
	
		<linearGradient gradientTransform="matrix(1 0 0 -1 0.2002 -1487.2285)" x1="43.8525" x2="44.5819" gradientUnits="userSpaceOnUse" y1="-1502.7417" y2="-1520.2552" id="svg1.neck_x5F_white_3_">
		<stop offset="0.2711" style="stop-color:#FFAB4F"/>
		<stop offset="1" style="stop-color:#FFD28F"/>
	</linearGradient>
	<path fill="url(#svg1.neck_x5F_white_3_)" id="svg1.neck_x5F_white_17_" stroke-width="0.5" d="   M39.859,18.899h9.094v10.115c-0.656,0.186-8.586,0.218-9.094,0.086V18.899z" stroke-miterlimit="10" stroke="#FFAB4F"/>
	
		<linearGradient gradientTransform="matrix(1 0 0 -1 0.2002 -1487.2285)" x1="43.3506" x2="43.9712" gradientUnits="userSpaceOnUse" y1="-1499.2075" y2="-1514.1077" id="svg1.SVGID_2_">
		<stop offset="0.2711" style="stop-color:#FFAB4F"/>
		<stop offset="1" style="stop-color:#FFD28F"/>
	</linearGradient>
	<path fill="url(#svg1.SVGID_2_)" stroke-width="0.5" d="M54.986,25.612   c-2.199-2.197-5.478-2.941-6.033-3.055v-3.658h-9.094c0,0,0.02,3.452,0,3.435c0,0-3.438,0.499-6.153,3.216   c-2.796,2.796-3.235,5.835-3.235,5.835c0,0.971,0.787,1.746,1.762,1.746h24.256c0.974,0,1.761-0.777,1.761-1.746   C58.248,31.384,57.326,27.953,54.986,25.612z" stroke-miterlimit="10" stroke="#ED9135"/>
	
		<radialGradient gradientTransform="matrix(1 0 0 -1 0.2002 -1487.2285)" gradientUnits="userSpaceOnUse" r="11.7111" cx="43.9727" id="svg1.face_x5F_white_3_" cy="-1500.0908" fx="41.6881" fy="-1501.3356">
		<stop offset="0" style="stop-color:#FFD28F"/>
		<stop offset="1" style="stop-color:#FFAB4F"/>
	</radialGradient>
	<path fill="url(#svg1.face_x5F_white_3_)" id="svg1.face_x5F_white_17_" stroke-width="0.5" d="   M52.059,11.679c0.043,5.1-3.369,9.26-7.623,9.293c-4.25,0.034-7.731-4.073-7.774-9.172c-0.042-5.1,3.368-9.261,7.622-9.294   C48.536,2.473,52.016,6.579,52.059,11.679z" stroke-miterlimit="10" stroke="#ED9135"/>
	
		<linearGradient gradientTransform="matrix(0.275 0 0 0.2733 -1169.7629 -2324.9595)" x1="4409.9326" x2="4421.7476" gradientUnits="userSpaceOnUse" y1="8522.0703" y2="8568.7969" id="svg1.face_highlight_3_">
		<stop offset="0" style="stop-color:#FFFFFF;stop-opacity:0.24"/>
		<stop offset="1" style="stop-color:#FFFFFF;stop-opacity:0.16"/>
	</linearGradient>
	<path fill="url(#svg1.face_highlight_3_)" id="svg1.face_highlight_17_" d="M44.2,3.166c-3.019,0.023-5.374,2.247-6.394,5.193   c-0.332,0.96-0.147,2.021,0.489,2.814c1.364,1.699,2.864,3.142,4.729,4.044c1.568,0.759,3.768,1.192,5.945,0.624   c1.139-0.297,1.994-1.229,2.188-2.383c0.092-0.548,0.146-1.145,0.143-1.777C51.262,6.977,48.357,3.134,44.2,3.166z"/>
	
		<path stroke-linecap="round" fill="#ECECEC" stroke-linejoin="round" d="   M40.359,6.625c0,0,2.66,3.625,7.5,1.875c1.365-0.281,4.529,0.518,4.529,0.518s-1.828-8.085-8.523-7.646   c-8.943,0.69-7.615,11.467-7.615,11.467s1.384-0.342,2.518-2.401C39.255,9.553,40.359,6.625,40.359,6.625z" id="svg1.hair_x5F_gray_17_" stroke="#9B9B9B" stroke-width="0.5"/>
	
		<radialGradient gradientTransform="matrix(1 0 0 -1 0.2002 -1487.2285)" id="svg1.collar_x5F_body_2_" r="16.2003" cx="37.6602" gradientUnits="userSpaceOnUse" cy="-1515.813">
		<stop offset="0" style="stop-color:#B0E8FF"/>
		<stop offset="1" style="stop-color:#74AEEE"/>
	</radialGradient>
	<path fill="url(#svg1.collar_x5F_body_2_)" id="svg1.collar_x5F_body_8_" d="M30.471,31.384   c0,0.97,0.787,1.747,1.762,1.747h24.256c0.974,0,1.761-0.779,1.761-1.747c0,0-0.922-3.431-3.263-5.771   c-2.407-2.406-5.623-3.072-5.623-3.072c-0.885,0.827-2.805,1.4-5.03,1.4s-4.146-0.573-5.031-1.4c0,0-2.878,0.293-5.595,3.01   C30.91,28.345,30.471,31.384,30.471,31.384z" stroke-width="0.5" stroke="#5491CF"/>
	
		<radialGradient gradientTransform="matrix(1 0 0 -1 0.2002 -1487.2285)" id="svg1.collar_x5F_r_2_" r="4.6401" cx="45.8311" gradientUnits="userSpaceOnUse" cy="-1510.8745">
		<stop offset="0" style="stop-color:#80CCFF"/>
		<stop offset="1" style="stop-color:#74AEEE"/>
	</radialGradient>
	<path fill="url(#svg1.collar_x5F_r_2_)" id="svg1.collar_x5F_r_8_" d="M49.301,20.69   c0,0-0.287,1.185-1.506,2.221c-1.055,0.897-2.893,1.036-2.893,1.036l1.986,3.108c0,0,1.479-0.818,2.504-1.924   c0.961-1.036,0.686-2.74,0.686-2.74L49.301,20.69z" stroke-width="0.5" stroke="#5491CF"/>
	
		<radialGradient gradientTransform="matrix(1 0 0 -1 0.2002 -1487.2285)" id="svg1.collar_x5F_l_2_" r="4.6426" cx="39.6494" gradientUnits="userSpaceOnUse" cy="-1510.896">
		<stop offset="0" style="stop-color:#80CCFF"/>
		<stop offset="1" style="stop-color:#74AEEE"/>
	</radialGradient>
	<path fill="url(#svg1.collar_x5F_l_2_)" id="svg1.collar_x5F_l_8_" d="M39.536,20.711   c0,0,0.288,1.185,1.506,2.221c1.056,0.896,2.894,1.036,2.894,1.036l-1.987,3.108c0,0-1.479-0.818-2.505-1.925   c-0.961-1.036-0.685-2.74-0.685-2.74L39.536,20.711z" stroke-width="0.5" stroke="#5491CF"/>
	
		<radialGradient gradientTransform="matrix(1 0 0 -1 0.1201 -714.5371)" id="svg1.Knob2_2_" r="0.4846" cx="44.0645" gradientUnits="userSpaceOnUse" cy="-742.6421">
		<stop offset="0" style="stop-color:#80CCFF"/>
		<stop offset="1" style="stop-color:#74AEEE"/>
	</radialGradient>
	<circle fill="url(#svg1.Knob2_2_)" r="0.292" cx="44.35" id="svg1.Knob2_8_" cy="28.127" stroke="#5491CF" stroke-width="0.5"/>
	
		<radialGradient gradientTransform="matrix(1 0 0 -1 0.1201 -714.5371)" id="svg1.Knob1_2_" r="0.4847" cx="44.083" gradientUnits="userSpaceOnUse" cy="-745.7642">
		<stop offset="0" style="stop-color:#80CCFF"/>
		<stop offset="1" style="stop-color:#74AEEE"/>
	</radialGradient>
	<circle fill="url(#svg1.Knob1_2_)" r="0.292" cx="44.369" id="svg1.Knob1_8_" cy="31.25" stroke="#5491CF" stroke-width="0.5"/>
	
		<radialGradient gradientTransform="matrix(1 0 0 -1 0.2002 -1487.2285)" id="svg1.jacket_x5F_body_1_" r="20.459" cx="36.7842" gradientUnits="userSpaceOnUse" cy="-1515.3755">
		<stop offset="0" style="stop-color:#D0D0D0"/>
		<stop offset="1" style="stop-color:#9B9B9B"/>
	</radialGradient>
	
		<path stroke-linecap="round" fill="url(#svg1.jacket_x5F_body_1_)" stroke-linejoin="round" d="   M54.986,25.612c-2.217-2.217-5.111-2.955-5.557-3.059l-2.695,10.572h-4.43L39.686,22.84c-0.145-0.096-0.271-0.196-0.385-0.301   c0,0-2.877,0.293-5.595,3.01c-2.796,2.796-3.233,5.835-3.233,5.835c0,0.97,0.786,1.747,1.76,1.747h24.256   c0.975,0,1.761-0.779,1.761-1.747C58.248,31.384,57.326,27.953,54.986,25.612z" id="svg1.jacket_x5F_body_8_" stroke="#4B4B4B" stroke-width="0.5"/>
	
		<polygon stroke-linecap="round" points="   49.688,21.038 51.305,23.187 50.615,27.835 48.914,28.25 49.547,29.563 47.509,33.126 46.734,33.126  " fill="#9B9B9B" stroke-linejoin="round" id="svg1.jacket_x5F_r_8_" stroke="#4B4B4B" stroke-width="0.5"/>
	
		<polygon stroke-linecap="round" points="   39.354,21.038 37.734,23.187 38.426,27.835 40.127,28.25 39.493,29.563 41.531,33.126 42.307,33.126  " fill="#B2B2B2" stroke-linejoin="round" id="svg1.jacket_x5F_l_8_" stroke="#4B4B4B" stroke-width="0.5"/>
	<path fill="#D54A30" id="svg1.path5135_8_" d="M43.936,27.61c0,0-0.926,1.028-1.041,3.271   c-0.115,2.244,0,2.244,0,2.244h3.273c0,0,0.115,0.031-0.077-2.182c-0.2-2.302-1.194-3.334-1.194-3.334L43.936,27.61L43.936,27.61z" stroke-width="0.5" stroke="#B51A19"/>
	<path fill="#D54A30" id="svg1.path5131_8_" d="M44.377,24.34h0.063l1.275,2.001   c0.258,0.477-0.604,0.898-0.729,1.274l-1.139-0.008c-0.121-0.38-1.129-0.683-0.738-1.292L44.377,24.34z" stroke-width="0.5" stroke="#B51A19"/>
	
		<linearGradient gradientTransform="matrix(1 0 0 -1 0.2002 -1487.2285)" x1="43.6328" x2="44.3621" gradientUnits="userSpaceOnUse" y1="-1527.7417" y2="-1545.2545" id="svg1.neck_x5F_white_4_">
		<stop offset="0.2711" style="stop-color:#FFAB4F"/>
		<stop offset="1" style="stop-color:#FFD28F"/>
	</linearGradient>
	<path fill="url(#svg1.neck_x5F_white_4_)" id="svg1.neck_x5F_white_11_" stroke-width="0.5" d="   M39.639,43.898h9.094v10.115c-0.655,0.187-8.586,0.219-9.094,0.086V43.898z" stroke-miterlimit="10" stroke="#FFAB4F"/>
	
		<linearGradient gradientTransform="matrix(1 0 0 -1 0.2002 -1487.2285)" x1="43.1309" x2="43.7515" gradientUnits="userSpaceOnUse" y1="-1524.2065" y2="-1539.1072" id="svg1.SVGID_3_">
		<stop offset="0.2711" style="stop-color:#FFAB4F"/>
		<stop offset="1" style="stop-color:#FFD28F"/>
	</linearGradient>
	<path fill="url(#svg1.SVGID_3_)" stroke-width="0.5" d="M54.766,50.611   c-2.199-2.196-5.477-2.94-6.033-3.055v-3.658h-9.094c0,0,0.021,3.453,0,3.436c0,0-3.437,0.499-6.152,3.216   c-2.797,2.796-3.235,5.835-3.235,5.835c0,0.971,0.787,1.746,1.763,1.746h24.254c0.975,0,1.762-0.777,1.762-1.746   C58.027,56.384,57.105,52.953,54.766,50.611z" stroke-miterlimit="10" stroke="#ED9135"/>
	
		<radialGradient gradientTransform="matrix(1 0 0 -1 0.2002 -1487.2285)" gradientUnits="userSpaceOnUse" r="11.7114" cx="43.752" id="svg1.face_x5F_white_4_" cy="-1525.0908" fx="41.4673" fy="-1526.3356">
		<stop offset="0" style="stop-color:#FFD28F"/>
		<stop offset="1" style="stop-color:#FFAB4F"/>
	</radialGradient>
	<path fill="url(#svg1.face_x5F_white_4_)" id="svg1.face_x5F_white_11_" stroke-width="0.5" d="   M51.838,36.68c0.043,5.1-3.369,9.26-7.623,9.293c-4.251,0.033-7.732-4.074-7.775-9.173c-0.041-5.1,3.369-9.261,7.623-9.294   C48.314,27.473,51.795,31.579,51.838,36.68z" stroke-miterlimit="10" stroke="#ED9135"/>
	
		<linearGradient gradientTransform="matrix(0.275 0 0 0.2733 -1169.7629 -2324.9595)" x1="4409.1299" x2="4420.9448" gradientUnits="userSpaceOnUse" y1="8613.5469" y2="8660.2725" id="svg1.face_highlight_4_">
		<stop offset="0" style="stop-color:#FFFFFF;stop-opacity:0.24"/>
		<stop offset="1" style="stop-color:#FFFFFF;stop-opacity:0.16"/>
	</linearGradient>
	<path fill="url(#svg1.face_highlight_4_)" id="svg1.face_highlight_11_" d="M43.979,28.166c-3.018,0.023-5.373,2.247-6.394,5.193   c-0.332,0.959-0.147,2.021,0.49,2.813c1.364,1.699,2.864,3.142,4.729,4.044c1.568,0.76,3.768,1.192,5.945,0.624   c1.139-0.297,1.994-1.229,2.188-2.383c0.092-0.548,0.146-1.146,0.144-1.776C51.041,31.977,48.137,28.134,43.979,28.166z"/>
	<path fill="#CC9869" d="M46.107,29.969   c0,0,2.845,1.375,3.845,4.062c1.052,2.826,2.062,4.117,2.095,4c0.938-3.395,0.531-10.718-5.086-10.792   c-10.229-3.832-12.79,5.98-11.947,9.824c0.539,2.457,1.117,3.344,1.971,4.041C36.982,41.104,37.514,33.781,46.107,29.969z" stroke-width="0.5" stroke="#99724F" stroke-linecap="round" stroke-linejoin="round"/>
	
		<linearGradient gradientTransform="matrix(0.9852 0 0 0.9852 -22.6981 -2330.2188)" x1="83.9365" x2="51.7404" gradientUnits="userSpaceOnUse" y1="2419.1064" y2="2419.1064" id="svg1.body_2_">
		<stop offset="0" style="stop-color:#49AD33"/>
		<stop offset="1" style="stop-color:#C2DA92"/>
	</linearGradient>
	<path fill="url(#svg1.body_2_)" id="svg1.body_35_" d="M30.25,56.384c0,0.97,0.787,1.747,1.762,1.747   h24.256c0.974,0,1.76-0.779,1.76-1.747c0,0-0.922-3.431-3.262-5.771c-2.408-2.406-4.123-2.572-4.123-2.572   c-0.723,3.49-4.276,4.393-6.504,4.393c-2.227,0-5.75-0.994-6.059-4.393c0,0-1.878-0.207-4.596,2.51   C30.689,53.346,30.25,56.384,30.25,56.384z" stroke-width="0.5" stroke="#008D33"/>
	
		<radialGradient gradientTransform="matrix(1 0 0 -1 0.2002 -1487.2285)" gradientUnits="userSpaceOnUse" r="5.7236" cx="14.0952" id="svg1.neck_x5F_white_5_" cy="-1534.9302" fx="12.9786" fy="-1535.5386">
		<stop offset="0" style="stop-color:#B38E5D"/>
		<stop offset="1" style="stop-color:#805126"/>
	</radialGradient>
	<path fill="url(#svg1.neck_x5F_white_5_)" id="svg1.neck_x5F_white_2_" stroke-width="0.5" d="   M9.859,43.898h9.094v6.615c-0.656,0.187-8.586,0.219-9.094,0.086V43.898z" stroke-miterlimit="10" stroke="#5B453B"/>
	
		<radialGradient gradientTransform="matrix(1 0 0 -1 0.2002 -1487.2285)" gradientUnits="userSpaceOnUse" r="15.5272" cx="13.8213" id="svg1.SVGID_4_" cy="-1539.1084" fx="10.7923" fy="-1540.7589">
		<stop offset="0" style="stop-color:#B38E5D"/>
		<stop offset="1" style="stop-color:#805126"/>
	</radialGradient>
	<path fill="url(#svg1.SVGID_4_)" stroke-width="0.5" d="M24.986,50.611   c-2.199-2.196-5.477-2.94-6.033-3.055v-3.658H9.859c0,0,0.02,3.453,0,3.436c0,0-3.437,0.499-6.153,3.216   c-2.796,2.796-3.235,5.835-3.235,5.835c0,0.971,0.787,1.746,1.762,1.746h24.255c0.974,0,1.761-0.777,1.761-1.746   C28.248,56.384,27.326,52.953,24.986,50.611z" stroke-miterlimit="10" stroke="#5B453B"/>
	
		<radialGradient gradientTransform="matrix(1 0 0 -1 0.2002 -1487.2285)" gradientUnits="userSpaceOnUse" r="11.7123" cx="13.9722" id="svg1.face_x5F_white_5_" cy="-1525.0908" fx="11.6873" fy="-1526.3357">
		<stop offset="0" style="stop-color:#B38E5D"/>
		<stop offset="1" style="stop-color:#805126"/>
	</radialGradient>
	<path fill="url(#svg1.face_x5F_white_5_)" id="svg1.face_x5F_white_2_" stroke-width="0.5" d="   M22.059,36.68c0.043,5.1-3.369,9.26-7.623,9.293c-4.251,0.033-7.732-4.074-7.775-9.173c-0.042-5.1,3.369-9.261,7.622-9.294   C18.536,27.473,22.016,31.579,22.059,36.68z" stroke-miterlimit="10" stroke="#5B453B"/>
	
		<linearGradient gradientTransform="matrix(0.275 0 0 0.2733 -1169.7629 -2324.9595)" x1="4300.8428" x2="4312.6582" gradientUnits="userSpaceOnUse" y1="8613.5449" y2="8660.2734" id="svg1.face_highlight_5_">
		<stop offset="0" style="stop-color:#FFFFFF;stop-opacity:0.42"/>
		<stop offset="1" style="stop-color:#FFFFFF;stop-opacity:0.12"/>
	</linearGradient>
	<path fill="url(#svg1.face_highlight_5_)" id="svg1.face_highlight_2_" d="M14.2,28.166c-3.018,0.023-5.374,2.247-6.394,5.193   c-0.332,0.959-0.147,2.021,0.49,2.813c1.364,1.699,2.864,3.142,4.73,4.044c1.568,0.76,3.767,1.192,5.945,0.624   c1.139-0.297,1.994-1.229,2.188-2.383c0.092-0.548,0.146-1.146,0.143-1.776C21.262,31.977,18.357,28.134,14.2,28.166z"/>
	
		<path stroke-linecap="round" fill="#4B4B4B" stroke-linejoin="round" d="   M10.359,31.625c1.709,2.166,4.667,3.459,4.667,3.459l-0.708-1.75c0,0,3.547,2.346,4.041,2.166c0.484-0.1-0.541-1.902-0.541-1.902   s1.568,0.896,2.428,1.983c0.9,1.14,2.143,1.752,2.143,1.752s1.346-10.974-8.523-10.961C4.359,26.354,6.25,38.839,6.25,38.839   L7.568,33.5c0,0,0.457,2.879,0.699,2.438C9.151,32.605,9.651,30.75,10.359,31.625z" id="svg1.Hair_Young_Black_1_" stroke="#000000" stroke-width="0.5"/>
	
		<radialGradient gradientTransform="matrix(1 0 0 -1 0.2002 -1487.2285)" id="svg1.collar_x5F_body_3_" r="16.2003" cx="7.6602" gradientUnits="userSpaceOnUse" cy="-1540.813">
		<stop offset="0" style="stop-color:#B0E8FF"/>
		<stop offset="1" style="stop-color:#74AEEE"/>
	</radialGradient>
	<path fill="url(#svg1.collar_x5F_body_3_)" id="svg1.collar_x5F_body_1_" d="M0.471,56.384   c0,0.97,0.787,1.747,1.762,1.747h24.255c0.974,0,1.761-0.779,1.761-1.747c0,0-0.922-3.431-3.262-5.771   c-2.408-2.406-5.623-3.072-5.623-3.072c-0.885,0.827-2.805,1.4-5.031,1.4s-4.146-0.573-5.031-1.4c0,0-2.878,0.293-5.595,3.01   C0.91,53.346,0.471,56.384,0.471,56.384z" stroke-width="0.5" stroke="#5491CF"/>
	
		<radialGradient gradientTransform="matrix(1 0 0 -1 0.2002 -1487.2285)" id="svg1.collar_x5F_r_3_" r="4.6412" cx="15.8306" gradientUnits="userSpaceOnUse" cy="-1535.874">
		<stop offset="0" style="stop-color:#80CCFF"/>
		<stop offset="1" style="stop-color:#74AEEE"/>
	</radialGradient>
	<path fill="url(#svg1.collar_x5F_r_3_)" id="svg1.collar_x5F_r_1_" d="M19.301,45.689   c0,0-0.287,1.186-1.506,2.222c-1.055,0.897-2.893,1.036-2.893,1.036l1.986,3.107c0,0,1.479-0.818,2.504-1.924   c0.961-1.035,0.686-2.74,0.686-2.74L19.301,45.689z" stroke-width="0.5" stroke="#5491CF"/>
	
		<radialGradient gradientTransform="matrix(1 0 0 -1 0.2002 -1487.2285)" id="svg1.collar_x5F_l_3_" r="4.6422" cx="9.6494" gradientUnits="userSpaceOnUse" cy="-1535.896">
		<stop offset="0" style="stop-color:#80CCFF"/>
		<stop offset="1" style="stop-color:#74AEEE"/>
	</radialGradient>
	<path fill="url(#svg1.collar_x5F_l_3_)" id="svg1.collar_x5F_l_1_" d="M9.536,45.711   c0,0,0.288,1.186,1.506,2.221c1.055,0.896,2.893,1.037,2.893,1.037l-1.987,3.107c0,0-1.479-0.818-2.504-1.926   c-0.961-1.035-0.685-2.739-0.685-2.739L9.536,45.711z" stroke-width="0.5" stroke="#5491CF"/>
	
		<radialGradient gradientTransform="matrix(1 0 0 -1 0.1201 -714.5371)" id="svg1.Knob2_3_" r="0.4842" cx="14.0645" gradientUnits="userSpaceOnUse" cy="-767.6421">
		<stop offset="0" style="stop-color:#80CCFF"/>
		<stop offset="1" style="stop-color:#74AEEE"/>
	</radialGradient>
	<circle fill="url(#svg1.Knob2_3_)" r="0.292" cx="14.35" id="svg1.Knob2_1_" cy="53.127" stroke="#5491CF" stroke-width="0.5"/>
	
		<radialGradient gradientTransform="matrix(1 0 0 -1 0.1201 -714.5371)" id="svg1.Knob1_3_" r="0.4844" cx="14.0835" gradientUnits="userSpaceOnUse" cy="-770.7642">
		<stop offset="0" style="stop-color:#80CCFF"/>
		<stop offset="1" style="stop-color:#74AEEE"/>
	</radialGradient>
	<circle fill="url(#svg1.Knob1_3_)" r="0.292" cx="14.369" id="svg1.Knob1_1_" cy="56.25" stroke="#5491CF" stroke-width="0.5"/>
	<path fill="#D54A30" id="svg1.path5135_1_" d="M13.935,52.609c0,0-0.925,1.029-1.04,3.271   c-0.115,2.244,0,2.244,0,2.244h3.273c0,0,0.115,0.031-0.077-2.182c-0.2-2.303-1.194-3.334-1.194-3.334H13.935L13.935,52.609z" stroke-width="0.5" stroke="#B51A19"/>
	<path fill="#D54A30" id="svg1.path5131_1_" d="M14.377,49.34h0.062l1.276,2.001   c0.258,0.478-0.604,0.897-0.728,1.274l-1.14-0.008c-0.121-0.381-1.128-0.684-0.738-1.293L14.377,49.34z" stroke-width="0.5" stroke="#B51A19"/>
</g>
</svg>
      </g>
    </g>
    <g text-rendering="geometricPrecision" stroke-miterlimit="1.45" shape-rendering="geometricPrecision" font-family="sans-serif" transform="matrix(1,0,0,1,-130,-15)" stroke-linecap="butt">
      <text x="227.8154" xml:space="preserve" y="126.6982" clip-path="url(#clipPath2)" stroke="none">Digital Identity</text>
      <text x="236.4932" xml:space="preserve" y="142.6591" clip-path="url(#clipPath2)" stroke="none">Committee</text>
    </g>
    <g fill="rgb(67,141,213)" text-rendering="geometricPrecision" shape-rendering="geometricPrecision" transform="matrix(1,0,0,1,-130,-15)" stroke="rgb(67,141,213)">
      <rect x="496" width="180" height="100" y="130.75" clip-path="url(#clipPath2)" stroke="none"/>
    </g>
    <g stroke-linecap="butt" transform="matrix(1,0,0,1,-130,-15)" fill="rgb(60,127,192)" text-rendering="geometricPrecision" shape-rendering="geometricPrecision" stroke="rgb(60,127,192)" stroke-miterlimit="1.45">
      <rect fill="none" x="496" width="180" height="100" y="130.75" clip-path="url(#clipPath2)"/>
    </g>
    <g stroke-linecap="butt" font-size="14px" transform="matrix(1,0,0,1,-130,-15)" fill="white" text-rendering="geometricPrecision" font-family="sans-serif" shape-rendering="geometricPrecision" stroke="white" font-weight="bold" stroke-miterlimit="1.45">
      <text x="524.1724" xml:space="preserve" y="186.6768" clip-path="url(#clipPath2)" stroke="none">CLI Tool for Wallet</text>
      <text x="528.291" font-size="12px" y="149.8105" clip-path="url(#clipPath2)" stroke="none" font-weight="normal" xml:space="preserve">&lt;&lt;Java Application&gt;&gt;</text>
    </g>
    <g fill="gray" text-rendering="geometricPrecision" shape-rendering="geometricPrecision" transform="matrix(1,0,0,1,-130,-15)" stroke="gray">
      <rect x="496" width="180" height="100" y="258.7326" clip-path="url(#clipPath2)" stroke="none"/>
    </g>
    <g stroke-linecap="butt" transform="matrix(1,0,0,1,-130,-15)" fill="rgb(102,102,102)" text-rendering="geometricPrecision" shape-rendering="geometricPrecision" stroke="rgb(102,102,102)" stroke-miterlimit="1.45">
      <rect fill="none" x="496" width="180" height="100" y="258.7326" clip-path="url(#clipPath2)"/>
    </g>
    <g stroke-linecap="butt" font-size="14px" transform="matrix(1,0,0,1,-130,-15)" fill="white" text-rendering="geometricPrecision" font-family="sans-serif" shape-rendering="geometricPrecision" stroke="white" font-weight="bold" stroke-miterlimit="1.45">
      <text x="533.1104" xml:space="preserve" y="314.6593" clip-path="url(#clipPath2)" stroke="none">Committee Tool</text>
      <text x="542.6318" font-size="12px" y="277.7931" clip-path="url(#clipPath2)" stroke="none" font-weight="normal" xml:space="preserve">&lt;&lt;Application&gt;&gt;</text>
    </g>
    <g fill="rgb(67,141,213)" text-rendering="geometricPrecision" shape-rendering="geometricPrecision" transform="matrix(1,0,0,1,-130,-15)" stroke="rgb(67,141,213)">
      <rect x="496" width="180" height="100" y="467.7326" clip-path="url(#clipPath2)" stroke="none"/>
    </g>
    <g stroke-linecap="butt" transform="matrix(1,0,0,1,-130,-15)" fill="rgb(60,127,192)" text-rendering="geometricPrecision" shape-rendering="geometricPrecision" stroke="rgb(60,127,192)" stroke-miterlimit="1.45">
      <rect fill="none" x="496" width="180" height="100" y="467.7326" clip-path="url(#clipPath2)"/>
    </g>
    <g stroke-linecap="butt" font-size="14px" transform="matrix(1,0,0,1,-130,-15)" fill="white" text-rendering="geometricPrecision" font-family="sans-serif" shape-rendering="geometricPrecision" stroke="white" font-weight="bold" stroke-miterlimit="1.45">
      <text x="524.1724" xml:space="preserve" y="523.6594" clip-path="url(#clipPath2)" stroke="none">CLI Tool for Wallet</text>
      <text x="528.291" font-size="12px" y="486.7931" clip-path="url(#clipPath2)" stroke="none" font-weight="normal" xml:space="preserve">&lt;&lt;Java Application&gt;&gt;</text>
    </g>
    <g text-rendering="geometricPrecision" shape-rendering="geometricPrecision" transform="matrix(1,0,0,1.0284,107.2225,468.157)">
      <g clip-path="url(#clipPath4)">
        <svg xml:space="preserve" opacity="1" writing-mode="lr-tb" stop-color="rgb(0, 0, 0)" shape-rendering="auto" glyph-orientation-horizontal="0deg" color-profile="auto" lighting-color="rgb(255, 255, 255)" color="rgb(0, 0, 0)" font-weight="400" alignment-baseline="auto" font-style="normal" version="1.1" color-interpolation-filters="linearrgb" text-anchor="start" stroke-linecap="butt" color-interpolation="srgb" font-variant="normal" word-spacing="normal" fill-opacity="1" text-rendering="auto" clip-path="none" text-decoration="none" letter-spacing="normal" viewBox="0 0 57 65" glyph-orientation-vertical="auto" display="inline" font-size-adjust="none" overflow="hidden" fill="rgb(0, 0, 0)" font-stretch="normal" stroke-dasharray="none" id="svg2.Ebene_1" stroke-miterlimit="4" stop-opacity="1" color-rendering="auto" font-size="12" pointer-events="visiblepainted" mask="none" direction="ltr" baseline-shift="baseline" enable-background="new 0 0 57 65" fill-rule="nonzero" image-rendering="auto" stroke-dashoffset="0" width="57px" marker-end="none" clip="auto" cursor="auto" stroke="none" filter="none" visibility="visible" kerning="auto" stroke-width="1" font-family="&quot;Arial&quot;,&quot;Helvetica&quot;,sans-serif" flood-opacity="1" clip-rule="nonzero" src="none" height="65px" unicode-bidi="normal" stroke-linejoin="miter" stroke-opacity="1" flood-color="rgb(0, 0, 0)" dominant-baseline="auto" marker-start="none" x="0px" marker-mid="none" y="0px">
<g>
	
		<linearGradient gradientTransform="matrix(1 0 0 1 0.3203 -3091.7656)" x1="26.3398" x2="27.5807" gradientUnits="userSpaceOnUse" y1="3115.7266" y2="3145.5239" id="svg2.SVGID_1_">
		<stop offset="0.2711" style="stop-color:#FFAB4F"/>
		<stop offset="1" style="stop-color:#FFD28F"/>
	</linearGradient>
	<path fill="url(#svg2.SVGID_1_)" d="M49.529,51.225c-4.396-4.396-10.951-5.884-12.063-6.109   V37.8H19.278c0,0,0.038,6.903,0,6.868c0,0-6.874,0.997-12.308,6.432C1.378,56.691,0.5,62.77,0.5,62.77   c0,1.938,1.575,3.492,3.523,3.492h48.51c1.947,0,3.521-1.558,3.521-3.492C56.055,62.768,54.211,55.906,49.529,51.225z" stroke-miterlimit="10" stroke="#ED9135"/>
	
		<radialGradient gradientTransform="matrix(1 0 0 1 0.3203 -3091.7656)" gradientUnits="userSpaceOnUse" r="23.425" cx="27.5835" id="svg2.face_x5F_white_1_" cy="3117.4922" fx="23.0139" fy="3115.0024">
		<stop offset="0" style="stop-color:#FFD28F"/>
		<stop offset="1" style="stop-color:#FFAB4F"/>
	</radialGradient>
	<path fill="url(#svg2.face_x5F_white_1_)" id="svg2.face_x5F_white_3_" d="M43.676,23.357   c0.086,10.2-6.738,18.52-15.25,18.586c-8.5,0.068-15.464-8.146-15.55-18.344C12.794,13.4,19.618,5.079,28.123,5.012   C36.627,4.945,43.59,13.158,43.676,23.357z" stroke-miterlimit="10" stroke="#ED9135"/>
	
		<linearGradient gradientTransform="matrix(0.275 0 0 -0.2733 -1752.8849 -3351.7349)" x1="6468.501" x2="6492.1304" gradientUnits="userSpaceOnUse" y1="-12291.5195" y2="-12384.9688" id="svg2.face_highlight_1_">
		<stop offset="0" style="stop-color:#FFFFFF;stop-opacity:0.24"/>
		<stop offset="1" style="stop-color:#FFFFFF;stop-opacity:0.16"/>
	</linearGradient>
	<path fill="url(#svg2.face_highlight_1_)" id="svg2.face_highlight_3_" d="M28.415,5.625c-6.035,0.047-10.747,4.493-12.787,10.386   c-0.664,1.919-0.294,4.043,0.98,5.629c2.73,3.398,5.729,6.283,9.461,8.088c3.137,1.518,7.535,2.385,11.893,1.247   c2.274-0.592,3.988-2.459,4.375-4.766c0.187-1.094,0.293-2.289,0.283-3.553C42.54,13.244,36.729,5.56,28.415,5.625z"/>
	<path fill="#5C5C5C" d="M20.278,13.25   c3.417,4.333,9.333,6.917,9.333,6.917l-1.417-3.5c0,0,7.094,4.691,8.083,4.333c0.968-0.2-1.082-3.807-1.082-3.807   s3.138,1.795,4.854,3.969c1.803,2.28,4.285,3.504,4.285,3.504S47.027,2.719,27.289,2.744C8.278,2.709,12.058,27.678,12.058,27.678   L14.695,17c0,0,0.914,5.757,1.399,4.875C17.861,15.211,18.861,11.5,20.278,13.25z" id="svg2.Hair_Young_Black_1_" stroke="#353535" stroke-linecap="round" stroke-linejoin="round"/>
	
		<radialGradient gradientTransform="matrix(1 0 0 1 0.3203 -3091.7656)" id="svg2.collar_x5F_body_1_" r="32.4004" cx="14.9609" gradientUnits="userSpaceOnUse" cy="3148.9336">
		<stop offset="0" style="stop-color:#B0E8FF"/>
		<stop offset="1" style="stop-color:#74AEEE"/>
	</radialGradient>
	<path fill="url(#svg2.collar_x5F_body_1_)" d="M0.5,62.768c0,1.938,1.575,3.494,3.523,3.494   h48.51c1.947,0,3.521-1.559,3.521-3.494c0,0-1.844-6.861-6.525-11.543c-4.815-4.813-11.244-6.146-11.244-6.146   c-1.771,1.655-5.61,2.802-10.063,2.802c-4.453,0-8.292-1.146-10.063-2.802c0,0-5.755,0.586-11.189,6.021   C1.378,56.689,0.5,62.768,0.5,62.768z" id="svg2.collar_x5F_body_3_" stroke="#5491CF"/>
	
		<radialGradient gradientTransform="matrix(1 0 0 1 0.3203 -3091.7656)" id="svg2.collar_x5F_r_1_" r="9.2823" cx="31.2998" gradientUnits="userSpaceOnUse" cy="3139.0605">
		<stop offset="0" style="stop-color:#80CCFF"/>
		<stop offset="1" style="stop-color:#74AEEE"/>
	</radialGradient>
	<path fill="url(#svg2.collar_x5F_r_1_)" d="M38.159,41.381c0,0-0.574,2.369-3.013,4.441   c-2.108,1.795-5.783,2.072-5.783,2.072l3.974,6.217c0,0,2.957-1.637,5.009-3.848c1.922-2.072,1.37-5.479,1.37-5.479L38.159,41.381z   " id="svg2.collar_x5F_r_3_" stroke="#5491CF"/>
	
		<radialGradient gradientTransform="matrix(1 0 0 1 0.3203 -3091.7656)" id="svg2.collar_x5F_l_1_" r="9.2843" cx="18.9375" gradientUnits="userSpaceOnUse" cy="3139.1016">
		<stop offset="0" style="stop-color:#80CCFF"/>
		<stop offset="1" style="stop-color:#74AEEE"/>
	</radialGradient>
	<path fill="url(#svg2.collar_x5F_l_1_)" d="M18.63,41.422c0,0,0.576,2.369,3.012,4.441   c2.109,1.793,5.785,2.072,5.785,2.072l-3.974,6.217c0,0-2.957-1.637-5.007-3.85c-1.922-2.072-1.37-5.48-1.37-5.48L18.63,41.422z" id="svg2.collar_x5F_l_3_" stroke="#5491CF"/>
	
		<radialGradient gradientTransform="matrix(1 0 0 1 0.2402 -2319.0742)" id="svg2.Knob2_1_" r="0.9669" cx="27.6895" gradientUnits="userSpaceOnUse" cy="2375.2871">
		<stop offset="0" style="stop-color:#80CCFF"/>
		<stop offset="1" style="stop-color:#74AEEE"/>
	</radialGradient>
	<circle fill="url(#svg2.Knob2_1_)" r="0.584" id="svg2.Knob2_3_" cx="28.258" cy="56.254" stroke="#5491CF"/>
	
		<radialGradient gradientTransform="matrix(1 0 0 1 0.2402 -2319.0742)" id="svg2.Knob1_1_" r="0.9669" cx="27.7275" gradientUnits="userSpaceOnUse" cy="2381.5283">
		<stop offset="0" style="stop-color:#80CCFF"/>
		<stop offset="1" style="stop-color:#74AEEE"/>
	</radialGradient>
	<circle fill="url(#svg2.Knob1_1_)" r="0.584" id="svg2.Knob1_3_" cx="28.297" cy="62.499" stroke="#5491CF"/>
	
		<radialGradient gradientTransform="matrix(1 0 0 1 0.3203 -3091.7656)" id="svg2.jacket_x5F_body_2_" r="40.9197" cx="13.2065" gradientUnits="userSpaceOnUse" cy="3148.0576">
		<stop offset="0" style="stop-color:#D0D0D0"/>
		<stop offset="1" style="stop-color:#9B9B9B"/>
	</radialGradient>
	
		<path fill="url(#svg2.jacket_x5F_body_2_)" d="   M49.529,51.225c-4.434-4.434-10.223-5.91-11.112-6.117l-5.39,21.146h-8.858L18.927,45.68c-0.286-0.191-0.543-0.393-0.767-0.602   c0,0-5.755,0.586-11.189,6.02c-5.592,5.592-6.47,11.67-6.47,11.67c0,1.938,1.575,3.494,3.523,3.494h48.51   c1.948,0,3.521-1.559,3.521-3.494C56.055,62.768,54.211,55.906,49.529,51.225z" id="svg2.jacket_x5F_body_1_" stroke="#4B4B4B" stroke-linecap="round" stroke-linejoin="round"/>
	<polygon fill="#9B9B9B" id="svg2.jacket_x5F_r_1_" points="   38.932,42.076 42.168,46.374 40.788,55.67 37.385,56.5 38.652,59.125 34.576,66.252 33.027,66.252  " stroke="#4B4B4B" stroke-linecap="round" stroke-linejoin="round"/>
	<polygon fill="#B2B2B2" id="svg2.jacket_x5F_l_1_" points="   18.263,42.076 15.028,46.374 16.409,55.67 19.811,56.5 18.544,59.125 22.621,66.252 24.169,66.252  " stroke="#4B4B4B" stroke-linecap="round" stroke-linejoin="round"/>
	
		<radialGradient gradientTransform="matrix(1 0 0 -1 0.04 64.1543)" id="svg2.path5135_1_" r="6.0918" cx="26.9917" gradientUnits="userSpaceOnUse" cy="4.1973">
		<stop offset="0" style="stop-color:#FCB57A"/>
		<stop offset="1" style="stop-color:#FF8C36"/>
	</radialGradient>
	<path fill="url(#svg2.path5135_1_)" d="M27.427,55.221c0,0-1.848,2.057-2.079,6.543   c-0.231,4.488,0,4.488,0,4.488h6.544c0,0,0.23,0.063-0.152-4.363c-0.399-4.604-2.389-6.668-2.389-6.668H27.427z" id="svg2.path5135_2_" stroke="#E55E03"/>
	
		<radialGradient gradientTransform="matrix(1 0 0 -1 0.04 64.1543)" id="svg2.path5131_1_" r="4.8472" cx="26.7456" gradientUnits="userSpaceOnUse" cy="11.9678">
		<stop offset="0" style="stop-color:#FCB57A"/>
		<stop offset="1" style="stop-color:#FF8C36"/>
	</radialGradient>
	<path fill="url(#svg2.path5131_1_)" d="M28.313,48.68h0.122l2.551,4.002   c0.517,0.953-1.204,1.797-1.453,2.549l-2.279-0.016c-0.243-0.76-2.257-1.365-1.476-2.584L28.313,48.68z" id="svg2.path5131_2_" stroke="#E55E03"/>
</g>
</svg>
      </g>
    </g>
    <g text-rendering="geometricPrecision" stroke-miterlimit="1.45" shape-rendering="geometricPrecision" font-family="sans-serif" transform="matrix(1,0,0,1,-130,-15)" stroke-linecap="butt">
      <text x="239.1592" xml:space="preserve" y="569.061" clip-path="url(#clipPath2)" stroke="none">TA Admin</text>
    </g>
    <g fill="gray" text-rendering="geometricPrecision" shape-rendering="geometricPrecision" transform="matrix(1,0,0,1,-130,-15)" stroke="gray">
      <rect x="496" width="180" height="100" y="597.7326" clip-path="url(#clipPath2)" stroke="none"/>
    </g>
    <g stroke-linecap="butt" transform="matrix(1,0,0,1,-130,-15)" fill="rgb(102,102,102)" text-rendering="geometricPrecision" shape-rendering="geometricPrecision" stroke="rgb(102,102,102)" stroke-miterlimit="1.45">
      <rect fill="none" x="496" width="180" height="100" y="597.7326" clip-path="url(#clipPath2)"/>
    </g>
    <g stroke-linecap="butt" font-size="14px" transform="matrix(1,0,0,1,-130,-15)" fill="white" text-rendering="geometricPrecision" font-family="sans-serif" shape-rendering="geometricPrecision" stroke="white" font-weight="bold" stroke-miterlimit="1.45">
      <text x="559.9517" xml:space="preserve" y="653.6594" clip-path="url(#clipPath2)" stroke="none">TA Tool</text>
      <text x="542.6318" font-size="12px" y="616.7932" clip-path="url(#clipPath2)" stroke="none" font-weight="normal" xml:space="preserve">&lt;&lt;Application&gt;&gt;</text>
    </g>
    <g text-rendering="geometricPrecision" stroke-miterlimit="1.45" shape-rendering="geometricPrecision" transform="matrix(1,0,0,1,-130,-15)" stroke-linecap="butt">
      <path fill="none" d="M294.7542 174.1874 L488.0311 174.1874" clip-path="url(#clipPath2)"/>
      <path d="M496.0311 174.1874 L484.0311 169.1874 L487.0311 174.1874 L484.0311 179.1874 Z" clip-path="url(#clipPath2)" stroke="none"/>
    </g>
    <g text-rendering="geometricPrecision" stroke-miterlimit="1.45" shape-rendering="geometricPrecision" font-family="sans-serif" transform="matrix(1,0,0,1,-130,-15) translate(326,122)" stroke-linecap="butt">
      <text x="0" xml:space="preserve" y="15" clip-path="url(#clipPath5)" stroke="none">1. Generate DidDoc</text>
      <text x="108" xml:space="preserve" font-size="10px" y="21" clip-path="url(#clipPath5)" stroke="none">comm</text>
      <text x="138" xml:space="preserve" y="15" clip-path="url(#clipPath5)" stroke="none"> </text>
      <text x="0" xml:space="preserve" y="39" clip-path="url(#clipPath5)" stroke="none">6. Sign DidDoc</text>
      <text x="82" xml:space="preserve" font-size="10px" y="45" clip-path="url(#clipPath5)" stroke="none">TA</text>
    </g>
    <g text-rendering="geometricPrecision" stroke-miterlimit="1.45" stroke-dasharray="6,2" shape-rendering="geometricPrecision" transform="matrix(1,0,0,1,-130,-15)" stroke-linecap="butt">
      <path fill="none" d="M495.9678 194.1874 L302.7393 194.1874" clip-path="url(#clipPath2)"/>
      <path d="M294.7393 194.1874 L306.7393 199.1874 L303.7393 194.1874 L306.7393 189.1874 Z" clip-path="url(#clipPath2)" stroke="none"/>
    </g>
    <g text-rendering="geometricPrecision" stroke-miterlimit="1.45" shape-rendering="geometricPrecision" font-family="sans-serif" transform="matrix(1,0,0,1,-130,-15) translate(337,198)" stroke-linecap="butt">
      <text x="0" xml:space="preserve" y="15" clip-path="url(#clipPath6)" stroke="none">7. {SignedDidDoc</text>
      <text x="97" xml:space="preserve" font-size="10px" y="21" clip-path="url(#clipPath6)" stroke="none">TA</text>
      <text x="111" xml:space="preserve" y="15" clip-path="url(#clipPath6)" stroke="none">}</text>
    </g>
    <g text-rendering="geometricPrecision" stroke-miterlimit="1.45" shape-rendering="geometricPrecision" transform="matrix(1,0,0,1,-130,-15)" stroke-linecap="butt">
      <path fill="none" d="M289 209.9648 L289 308.7326 L488 308.7326" clip-path="url(#clipPath2)"/>
      <path d="M496 308.7326 L484 303.7326 L487 308.7326 L484 313.7326 Z" clip-path="url(#clipPath2)" stroke="none"/>
    </g>
    <g text-rendering="geometricPrecision" stroke-miterlimit="1.45" shape-rendering="geometricPrecision" font-family="sans-serif" transform="matrix(1,0,0,1,-130,-15) translate(321,280)" stroke-linecap="butt">
      <text x="0" xml:space="preserve" y="15" clip-path="url(#clipPath7)" stroke="none">2. Register DidDoc</text>
      <text x="104" xml:space="preserve" font-size="10px" y="21" clip-path="url(#clipPath7)" stroke="none">comm</text>
    </g>
    <g text-rendering="geometricPrecision" stroke-miterlimit="1.45" shape-rendering="geometricPrecision" transform="matrix(1,0,0,1,-130,-15)" stroke-linecap="butt">
      <path fill="none" d="M675.9955 301 L894 301 L894 434.75" clip-path="url(#clipPath2)"/>
      <path d="M894 442.75 L899 430.75 L894 433.75 L889 430.75 Z" clip-path="url(#clipPath2)" stroke="none"/>
    </g>
    <g text-rendering="geometricPrecision" stroke-miterlimit="1.45" shape-rendering="geometricPrecision" font-family="sans-serif" transform="matrix(1,0,0,1,-130,-15) translate(755,273)" stroke-linecap="butt">
      <text x="0" xml:space="preserve" y="15" clip-path="url(#clipPath7)" stroke="none">3. Reigster DidDoc</text>
      <text x="104" xml:space="preserve" font-size="10px" y="21" clip-path="url(#clipPath7)" stroke="none">comm</text>
    </g>
    <g text-rendering="geometricPrecision" stroke-miterlimit="1.45" stroke-dasharray="6,2" shape-rendering="geometricPrecision" transform="matrix(1,0,0,1,-130,-15)" stroke-linecap="butt">
      <path fill="none" d="M274.5 209.9637 L274.5 479.5456" clip-path="url(#clipPath2)"/>
      <path d="M274.5 487.5456 L279.5 475.5456 L274.5 478.5456 L269.5 475.5456 Z" clip-path="url(#clipPath2)" stroke="none"/>
    </g>
    <g text-rendering="geometricPrecision" stroke-miterlimit="1.45" shape-rendering="geometricPrecision" font-family="sans-serif" transform="matrix(1,0,0,1,-130,-15) translate(278,335)" stroke-linecap="butt">
      <text x="0" xml:space="preserve" y="15" clip-path="url(#clipPath6)" stroke="none">8. {SignedDidDoc</text>
      <text x="97" xml:space="preserve" font-size="10px" y="21" clip-path="url(#clipPath6)" stroke="none">TA</text>
      <text x="111" xml:space="preserve" y="15" clip-path="url(#clipPath6)" stroke="none">}</text>
    </g>
    <g text-rendering="geometricPrecision" stroke-miterlimit="1.45" shape-rendering="geometricPrecision" transform="matrix(1,0,0,1,-130,-15)" stroke-linecap="butt">
      <path fill="none" d="M279.8583 517.7326 L488 517.7326" clip-path="url(#clipPath2)"/>
      <path d="M496 517.7326 L484 512.7326 L487 517.7326 L484 522.7326 Z" clip-path="url(#clipPath2)" stroke="none"/>
    </g>
    <g text-rendering="geometricPrecision" stroke-miterlimit="1.45" shape-rendering="geometricPrecision" font-family="sans-serif" transform="matrix(1,0,0,1,-130,-15) translate(333,489)" stroke-linecap="butt">
      <text x="0" xml:space="preserve" y="15" clip-path="url(#clipPath8)" stroke="none">4. Generate DidDoc</text>
      <text x="108" xml:space="preserve" font-size="10px" y="21" clip-path="url(#clipPath8)" stroke="none">TA</text>
    </g>
    <g text-rendering="geometricPrecision" stroke-miterlimit="1.45" shape-rendering="geometricPrecision" transform="matrix(1,0,0,1,-130,-15)" stroke-linecap="butt">
      <path fill="none" d="M255.5 487.4979 L255.5 217.9195" clip-path="url(#clipPath2)"/>
      <path d="M255.5 209.9195 L250.5 221.9195 L255.5 218.9195 L260.5 221.9195 Z" clip-path="url(#clipPath2)" stroke="none"/>
    </g>
    <g text-rendering="geometricPrecision" stroke-miterlimit="1.45" shape-rendering="geometricPrecision" font-family="sans-serif" transform="matrix(1,0,0,1,-130,-15) translate(147,419)" stroke-linecap="butt">
      <text x="0" xml:space="preserve" y="15" clip-path="url(#clipPath9)" stroke="none">5. Request signing</text>
      <text x="104" xml:space="preserve" y="15" clip-path="url(#clipPath9)" stroke="none"> </text>
      <text x="0" xml:space="preserve" y="33" clip-path="url(#clipPath9)" stroke="none">DidDoc</text>
      <text x="41" xml:space="preserve" font-size="10px" y="39" clip-path="url(#clipPath9)" stroke="none">TA</text>
    </g>
    <g text-rendering="geometricPrecision" stroke-miterlimit="1.45" shape-rendering="geometricPrecision" transform="matrix(1,0,0,1,-130,-15)" stroke-linecap="butt">
      <path fill="none" d="M289.8223 538.7326 L349.5 538.7326 L349.5 647.7326 L488 647.7326" clip-path="url(#clipPath2)"/>
      <path d="M496 647.7326 L484 642.7326 L487 647.7326 L484 652.7326 Z" clip-path="url(#clipPath2)" stroke="none"/>
    </g>
    <g text-rendering="geometricPrecision" stroke-miterlimit="1.45" shape-rendering="geometricPrecision" font-family="sans-serif" transform="matrix(1,0,0,1,-130,-15) translate(323,651)" stroke-linecap="butt">
      <text x="0" xml:space="preserve" y="15" clip-path="url(#clipPath10)" stroke="none">9. Register SignedDidDoc</text>
      <text x="143" xml:space="preserve" font-size="10px" y="21" clip-path="url(#clipPath10)" stroke="none">TA</text>
    </g>
    <g text-rendering="geometricPrecision" stroke-miterlimit="1.45" shape-rendering="geometricPrecision" transform="matrix(1,0,0,1,-130,-15)" stroke-linecap="butt">
      <path fill="none" d="M676 647.7326 L894 647.7326 L894 550.75" clip-path="url(#clipPath2)"/>
      <path d="M894 542.75 L889 554.75 L894 551.75 L899 554.75 Z" clip-path="url(#clipPath2)" stroke="none"/>
    </g>
    <g text-rendering="geometricPrecision" stroke-miterlimit="1.45" shape-rendering="geometricPrecision" font-family="sans-serif" transform="matrix(1,0,0,1,-130,-15) translate(735,619)" stroke-linecap="butt">
      <text x="0" xml:space="preserve" y="15" clip-path="url(#clipPath11)" stroke="none">10. Reigster SignedDidDoc</text>
      <text x="150" xml:space="preserve" font-size="10px" y="21" clip-path="url(#clipPath11)" stroke="none">TA</text>
    </g>
  </g>
</svg>
